G75*
%MOIN*%
%OFA0B0*%
%FSLAX25Y25*%
%IPPOS*%
%LPD*%
%AMOC8*
5,1,8,0,0,1.08239X$1,22.5*
%
%ADD10R,0.07300X0.07300*%
%ADD11C,0.07300*%
%ADD12C,0.08200*%
%ADD13C,0.17800*%
%ADD14C,0.07800*%
%ADD15C,0.00500*%
%ADD16C,0.09300*%
%ADD17C,0.06800*%
%ADD18C,0.13800*%
%ADD19C,0.07200*%
D10*
X0498412Y0176000D03*
X0533255Y0176000D03*
D11*
X0523412Y0176000D03*
X0508255Y0176000D03*
X0708333Y0146000D03*
X0733333Y0146000D03*
X0733333Y0136000D03*
X0708333Y0136000D03*
X0723333Y0171000D03*
X0743333Y0171000D03*
D12*
X0578333Y0206000D03*
X0568333Y0206000D03*
X0568333Y0216000D03*
X0578333Y0216000D03*
X0578333Y0226000D03*
X0568333Y0226000D03*
X0583333Y0101000D03*
X0613333Y0101000D03*
X0613333Y0091000D03*
X0583333Y0091000D03*
X0643333Y0091000D03*
X0673333Y0091000D03*
X0673333Y0101000D03*
X0643333Y0101000D03*
X0703333Y0101000D03*
X0703333Y0091000D03*
X0753333Y0091000D03*
X0753333Y0101000D03*
X0783333Y0101000D03*
X0783333Y0091000D03*
D13*
X0518333Y0197063D03*
X0499829Y0208874D03*
X0518333Y0220685D03*
D14*
X0823333Y0168795D03*
X0823333Y0143205D03*
D15*
X0785447Y0079126D02*
X0784813Y0079474D01*
X0784123Y0079691D01*
X0783403Y0079770D01*
X0782744Y0079722D01*
X0782102Y0079560D01*
X0781498Y0079289D01*
X0780951Y0078918D01*
X0780476Y0078457D01*
X0780089Y0077920D01*
X0779801Y0077325D01*
X0779620Y0076688D01*
X0779553Y0076030D01*
X0779618Y0075372D01*
X0779797Y0074735D01*
X0780084Y0074138D01*
X0780470Y0073601D01*
X0780943Y0073139D01*
X0781490Y0072766D01*
X0782092Y0072494D01*
X0782733Y0072330D01*
X0783393Y0072280D01*
X0784116Y0072361D01*
X0784809Y0072582D01*
X0785446Y0072933D01*
X0786002Y0073402D01*
X0786456Y0073970D01*
X0786790Y0074616D01*
X0786992Y0075315D01*
X0787053Y0076040D01*
X0786990Y0076761D01*
X0786788Y0077455D01*
X0786454Y0078097D01*
X0786001Y0078661D01*
X0785447Y0079126D01*
X0785546Y0079043D02*
X0781136Y0079043D01*
X0780567Y0078544D02*
X0786095Y0078544D01*
X0786481Y0078046D02*
X0780180Y0078046D01*
X0779909Y0077547D02*
X0786740Y0077547D01*
X0786906Y0077049D02*
X0779723Y0077049D01*
X0779606Y0076550D02*
X0787009Y0076550D01*
X0787052Y0076052D02*
X0779555Y0076052D01*
X0779600Y0075553D02*
X0787012Y0075553D01*
X0786917Y0075055D02*
X0779707Y0075055D01*
X0779883Y0074556D02*
X0786759Y0074556D01*
X0786501Y0074058D02*
X0780142Y0074058D01*
X0780513Y0073559D02*
X0786128Y0073559D01*
X0785597Y0073061D02*
X0781058Y0073061D01*
X0781940Y0072562D02*
X0784748Y0072562D01*
X0784599Y0079541D02*
X0782061Y0079541D01*
X0756990Y0076761D02*
X0757053Y0076040D01*
X0756992Y0075315D01*
X0756790Y0074616D01*
X0756456Y0073970D01*
X0756002Y0073402D01*
X0755446Y0072933D01*
X0754809Y0072582D01*
X0754116Y0072361D01*
X0753393Y0072280D01*
X0752733Y0072330D01*
X0752092Y0072494D01*
X0751490Y0072766D01*
X0750943Y0073139D01*
X0750470Y0073601D01*
X0750084Y0074138D01*
X0749797Y0074735D01*
X0749618Y0075372D01*
X0749553Y0076030D01*
X0749620Y0076688D01*
X0749801Y0077325D01*
X0750089Y0077920D01*
X0750476Y0078457D01*
X0750951Y0078918D01*
X0751498Y0079289D01*
X0752102Y0079560D01*
X0752744Y0079722D01*
X0753403Y0079770D01*
X0754123Y0079691D01*
X0754813Y0079474D01*
X0755447Y0079126D01*
X0756001Y0078661D01*
X0756454Y0078097D01*
X0756788Y0077455D01*
X0756990Y0076761D01*
X0757009Y0076550D02*
X0749606Y0076550D01*
X0749555Y0076052D02*
X0757052Y0076052D01*
X0757012Y0075553D02*
X0749600Y0075553D01*
X0749707Y0075055D02*
X0756917Y0075055D01*
X0756759Y0074556D02*
X0749883Y0074556D01*
X0750142Y0074058D02*
X0756501Y0074058D01*
X0756128Y0073559D02*
X0750513Y0073559D01*
X0751058Y0073061D02*
X0755597Y0073061D01*
X0754748Y0072562D02*
X0751940Y0072562D01*
X0749723Y0077049D02*
X0756906Y0077049D01*
X0756740Y0077547D02*
X0749909Y0077547D01*
X0750180Y0078046D02*
X0756481Y0078046D01*
X0756095Y0078544D02*
X0750567Y0078544D01*
X0751136Y0079043D02*
X0755546Y0079043D01*
X0754599Y0079541D02*
X0752061Y0079541D01*
X0707053Y0076040D02*
X0706990Y0076761D01*
X0706788Y0077455D01*
X0706454Y0078097D01*
X0706001Y0078661D01*
X0705447Y0079126D01*
X0704813Y0079474D01*
X0704123Y0079691D01*
X0703403Y0079770D01*
X0702744Y0079722D01*
X0702102Y0079560D01*
X0701498Y0079289D01*
X0700951Y0078918D01*
X0700476Y0078457D01*
X0700089Y0077920D01*
X0699801Y0077325D01*
X0699620Y0076688D01*
X0699553Y0076030D01*
X0699618Y0075372D01*
X0699797Y0074735D01*
X0700084Y0074138D01*
X0700470Y0073601D01*
X0700943Y0073139D01*
X0701490Y0072766D01*
X0702092Y0072494D01*
X0702733Y0072330D01*
X0703393Y0072280D01*
X0704116Y0072361D01*
X0704809Y0072582D01*
X0705446Y0072933D01*
X0706002Y0073402D01*
X0706456Y0073970D01*
X0706790Y0074616D01*
X0706992Y0075315D01*
X0707053Y0076040D01*
X0707052Y0076052D02*
X0699555Y0076052D01*
X0699600Y0075553D02*
X0707012Y0075553D01*
X0706917Y0075055D02*
X0699707Y0075055D01*
X0699883Y0074556D02*
X0706759Y0074556D01*
X0706501Y0074058D02*
X0700142Y0074058D01*
X0700513Y0073559D02*
X0706128Y0073559D01*
X0705597Y0073061D02*
X0701058Y0073061D01*
X0701940Y0072562D02*
X0704748Y0072562D01*
X0707009Y0076550D02*
X0699606Y0076550D01*
X0699723Y0077049D02*
X0706906Y0077049D01*
X0706740Y0077547D02*
X0699909Y0077547D01*
X0700180Y0078046D02*
X0706481Y0078046D01*
X0706095Y0078544D02*
X0700567Y0078544D01*
X0701136Y0079043D02*
X0705546Y0079043D01*
X0704599Y0079541D02*
X0702061Y0079541D01*
X0676990Y0076761D02*
X0677053Y0076040D01*
X0676992Y0075315D01*
X0676790Y0074616D01*
X0676456Y0073970D01*
X0676002Y0073402D01*
X0675446Y0072933D01*
X0674809Y0072582D01*
X0674116Y0072361D01*
X0673393Y0072280D01*
X0672733Y0072330D01*
X0672092Y0072494D01*
X0671490Y0072766D01*
X0670943Y0073139D01*
X0670470Y0073601D01*
X0670084Y0074138D01*
X0669797Y0074735D01*
X0669618Y0075372D01*
X0669553Y0076030D01*
X0669620Y0076688D01*
X0669801Y0077325D01*
X0670089Y0077920D01*
X0670476Y0078457D01*
X0670951Y0078918D01*
X0671498Y0079289D01*
X0672102Y0079560D01*
X0672744Y0079722D01*
X0673403Y0079770D01*
X0674123Y0079691D01*
X0674813Y0079474D01*
X0675447Y0079126D01*
X0676001Y0078661D01*
X0676454Y0078097D01*
X0676788Y0077455D01*
X0676990Y0076761D01*
X0677009Y0076550D02*
X0669606Y0076550D01*
X0669555Y0076052D02*
X0677052Y0076052D01*
X0677012Y0075553D02*
X0669600Y0075553D01*
X0669707Y0075055D02*
X0676917Y0075055D01*
X0676759Y0074556D02*
X0669883Y0074556D01*
X0670142Y0074058D02*
X0676501Y0074058D01*
X0676128Y0073559D02*
X0670513Y0073559D01*
X0671058Y0073061D02*
X0675597Y0073061D01*
X0674748Y0072562D02*
X0671940Y0072562D01*
X0669723Y0077049D02*
X0676906Y0077049D01*
X0676740Y0077547D02*
X0669909Y0077547D01*
X0670180Y0078046D02*
X0676481Y0078046D01*
X0676095Y0078544D02*
X0670567Y0078544D01*
X0671136Y0079043D02*
X0675546Y0079043D01*
X0674599Y0079541D02*
X0672061Y0079541D01*
X0646990Y0076761D02*
X0647053Y0076040D01*
X0646992Y0075315D01*
X0646790Y0074616D01*
X0646456Y0073970D01*
X0646002Y0073402D01*
X0645446Y0072933D01*
X0644809Y0072582D01*
X0644116Y0072361D01*
X0643393Y0072280D01*
X0642733Y0072330D01*
X0642092Y0072494D01*
X0641490Y0072766D01*
X0640943Y0073139D01*
X0640470Y0073601D01*
X0640084Y0074138D01*
X0639797Y0074735D01*
X0639618Y0075372D01*
X0639553Y0076030D01*
X0639620Y0076688D01*
X0639801Y0077325D01*
X0640089Y0077920D01*
X0640476Y0078457D01*
X0640951Y0078918D01*
X0641498Y0079289D01*
X0642102Y0079560D01*
X0642744Y0079722D01*
X0643403Y0079770D01*
X0644123Y0079691D01*
X0644813Y0079474D01*
X0645447Y0079126D01*
X0646001Y0078661D01*
X0646454Y0078097D01*
X0646788Y0077455D01*
X0646990Y0076761D01*
X0647009Y0076550D02*
X0639606Y0076550D01*
X0639555Y0076052D02*
X0647052Y0076052D01*
X0647012Y0075553D02*
X0639600Y0075553D01*
X0639707Y0075055D02*
X0646917Y0075055D01*
X0646759Y0074556D02*
X0639883Y0074556D01*
X0640142Y0074058D02*
X0646501Y0074058D01*
X0646128Y0073559D02*
X0640513Y0073559D01*
X0641058Y0073061D02*
X0645597Y0073061D01*
X0644748Y0072562D02*
X0641940Y0072562D01*
X0639723Y0077049D02*
X0646906Y0077049D01*
X0646740Y0077547D02*
X0639909Y0077547D01*
X0640180Y0078046D02*
X0646481Y0078046D01*
X0646095Y0078544D02*
X0640567Y0078544D01*
X0641136Y0079043D02*
X0645546Y0079043D01*
X0644599Y0079541D02*
X0642061Y0079541D01*
X0616990Y0076761D02*
X0617053Y0076040D01*
X0616992Y0075315D01*
X0616790Y0074616D01*
X0616456Y0073970D01*
X0616002Y0073402D01*
X0615446Y0072933D01*
X0614809Y0072582D01*
X0614116Y0072361D01*
X0613393Y0072280D01*
X0612733Y0072330D01*
X0612092Y0072494D01*
X0611490Y0072766D01*
X0610943Y0073139D01*
X0610470Y0073601D01*
X0610084Y0074138D01*
X0609797Y0074735D01*
X0609618Y0075372D01*
X0609553Y0076030D01*
X0609620Y0076688D01*
X0609801Y0077325D01*
X0610089Y0077920D01*
X0610476Y0078457D01*
X0610951Y0078918D01*
X0611498Y0079289D01*
X0612102Y0079560D01*
X0612744Y0079722D01*
X0613403Y0079770D01*
X0614123Y0079691D01*
X0614813Y0079474D01*
X0615447Y0079126D01*
X0616001Y0078661D01*
X0616454Y0078097D01*
X0616788Y0077455D01*
X0616990Y0076761D01*
X0617009Y0076550D02*
X0609606Y0076550D01*
X0609555Y0076052D02*
X0617052Y0076052D01*
X0617012Y0075553D02*
X0609600Y0075553D01*
X0609707Y0075055D02*
X0616917Y0075055D01*
X0616759Y0074556D02*
X0609883Y0074556D01*
X0610142Y0074058D02*
X0616501Y0074058D01*
X0616128Y0073559D02*
X0610513Y0073559D01*
X0611058Y0073061D02*
X0615597Y0073061D01*
X0614748Y0072562D02*
X0611940Y0072562D01*
X0609723Y0077049D02*
X0616906Y0077049D01*
X0616740Y0077547D02*
X0609909Y0077547D01*
X0610180Y0078046D02*
X0616481Y0078046D01*
X0616095Y0078544D02*
X0610567Y0078544D01*
X0611136Y0079043D02*
X0615546Y0079043D01*
X0614599Y0079541D02*
X0612061Y0079541D01*
X0586990Y0076761D02*
X0587053Y0076040D01*
X0586992Y0075315D01*
X0586790Y0074616D01*
X0586456Y0073970D01*
X0586002Y0073402D01*
X0585446Y0072933D01*
X0584809Y0072582D01*
X0584116Y0072361D01*
X0583393Y0072280D01*
X0582733Y0072330D01*
X0582092Y0072494D01*
X0581490Y0072766D01*
X0580943Y0073139D01*
X0580470Y0073601D01*
X0580084Y0074138D01*
X0579797Y0074735D01*
X0579618Y0075372D01*
X0579553Y0076030D01*
X0579620Y0076688D01*
X0579801Y0077325D01*
X0580089Y0077920D01*
X0580476Y0078457D01*
X0580951Y0078918D01*
X0581498Y0079289D01*
X0582102Y0079560D01*
X0582744Y0079722D01*
X0583403Y0079770D01*
X0584123Y0079691D01*
X0584813Y0079474D01*
X0585447Y0079126D01*
X0586001Y0078661D01*
X0586454Y0078097D01*
X0586788Y0077455D01*
X0586990Y0076761D01*
X0587009Y0076550D02*
X0579606Y0076550D01*
X0579555Y0076052D02*
X0587052Y0076052D01*
X0587012Y0075553D02*
X0579600Y0075553D01*
X0579707Y0075055D02*
X0586917Y0075055D01*
X0586759Y0074556D02*
X0579883Y0074556D01*
X0580142Y0074058D02*
X0586501Y0074058D01*
X0586128Y0073559D02*
X0580513Y0073559D01*
X0581058Y0073061D02*
X0585597Y0073061D01*
X0584748Y0072562D02*
X0581940Y0072562D01*
X0579723Y0077049D02*
X0586906Y0077049D01*
X0586740Y0077547D02*
X0579909Y0077547D01*
X0580180Y0078046D02*
X0586481Y0078046D01*
X0586095Y0078544D02*
X0580567Y0078544D01*
X0581136Y0079043D02*
X0585546Y0079043D01*
X0584599Y0079541D02*
X0582061Y0079541D01*
X0583433Y0049740D02*
X0584153Y0049662D01*
X0584843Y0049444D01*
X0585477Y0049096D01*
X0586031Y0048631D01*
X0586484Y0048067D01*
X0586818Y0047425D01*
X0587020Y0046731D01*
X0587083Y0046010D01*
X0587022Y0045285D01*
X0586820Y0044586D01*
X0586486Y0043940D01*
X0586032Y0043372D01*
X0585476Y0042903D01*
X0584839Y0042552D01*
X0584146Y0042331D01*
X0583423Y0042250D01*
X0582763Y0042300D01*
X0582122Y0042464D01*
X0581520Y0042736D01*
X0580973Y0043109D01*
X0580500Y0043571D01*
X0580114Y0044109D01*
X0579827Y0044705D01*
X0579648Y0045342D01*
X0579583Y0046000D01*
X0579650Y0046658D01*
X0579831Y0047295D01*
X0580119Y0047890D01*
X0580506Y0048427D01*
X0580981Y0048888D01*
X0581528Y0049259D01*
X0582132Y0049530D01*
X0582773Y0049692D01*
X0583433Y0049740D01*
X0584250Y0049631D02*
X0582531Y0049631D01*
X0581341Y0049132D02*
X0585411Y0049132D01*
X0586028Y0048634D02*
X0580720Y0048634D01*
X0580296Y0048135D02*
X0586429Y0048135D01*
X0586708Y0047637D02*
X0579996Y0047637D01*
X0579786Y0047138D02*
X0586902Y0047138D01*
X0587028Y0046640D02*
X0579648Y0046640D01*
X0579597Y0046141D02*
X0587072Y0046141D01*
X0587052Y0045643D02*
X0579618Y0045643D01*
X0579704Y0045144D02*
X0586981Y0045144D01*
X0586837Y0044646D02*
X0579856Y0044646D01*
X0580095Y0044147D02*
X0586593Y0044147D01*
X0586253Y0043649D02*
X0580444Y0043649D01*
X0580931Y0043150D02*
X0585769Y0043150D01*
X0585020Y0042652D02*
X0581706Y0042652D01*
X0609648Y0045342D02*
X0609583Y0046000D01*
X0609650Y0046658D01*
X0609831Y0047295D01*
X0610119Y0047890D01*
X0610506Y0048427D01*
X0610981Y0048888D01*
X0611528Y0049259D01*
X0612132Y0049530D01*
X0612773Y0049692D01*
X0613433Y0049740D01*
X0614153Y0049662D01*
X0614843Y0049444D01*
X0615477Y0049096D01*
X0616031Y0048631D01*
X0616484Y0048067D01*
X0616818Y0047425D01*
X0617020Y0046731D01*
X0617083Y0046010D01*
X0617022Y0045285D01*
X0616820Y0044586D01*
X0616486Y0043940D01*
X0616032Y0043372D01*
X0615476Y0042903D01*
X0614839Y0042552D01*
X0614146Y0042331D01*
X0613423Y0042250D01*
X0612763Y0042300D01*
X0612122Y0042464D01*
X0611520Y0042736D01*
X0610973Y0043109D01*
X0610500Y0043571D01*
X0610114Y0044109D01*
X0609827Y0044705D01*
X0609648Y0045342D01*
X0609704Y0045144D02*
X0616981Y0045144D01*
X0617052Y0045643D02*
X0609618Y0045643D01*
X0609597Y0046141D02*
X0617072Y0046141D01*
X0617028Y0046640D02*
X0609648Y0046640D01*
X0609786Y0047138D02*
X0616902Y0047138D01*
X0616708Y0047637D02*
X0609996Y0047637D01*
X0610296Y0048135D02*
X0616429Y0048135D01*
X0616028Y0048634D02*
X0610720Y0048634D01*
X0611341Y0049132D02*
X0615411Y0049132D01*
X0614250Y0049631D02*
X0612531Y0049631D01*
X0609856Y0044646D02*
X0616837Y0044646D01*
X0616593Y0044147D02*
X0610095Y0044147D01*
X0610444Y0043649D02*
X0616253Y0043649D01*
X0615769Y0043150D02*
X0610931Y0043150D01*
X0611706Y0042652D02*
X0615020Y0042652D01*
X0639648Y0045342D02*
X0639583Y0046000D01*
X0639650Y0046658D01*
X0639831Y0047295D01*
X0640119Y0047890D01*
X0640506Y0048427D01*
X0640981Y0048888D01*
X0641528Y0049259D01*
X0642132Y0049530D01*
X0642773Y0049692D01*
X0643433Y0049740D01*
X0644153Y0049662D01*
X0644843Y0049444D01*
X0645477Y0049096D01*
X0646031Y0048631D01*
X0646484Y0048067D01*
X0646818Y0047425D01*
X0647020Y0046731D01*
X0647083Y0046010D01*
X0647022Y0045285D01*
X0646820Y0044586D01*
X0646486Y0043940D01*
X0646032Y0043372D01*
X0645476Y0042903D01*
X0644839Y0042552D01*
X0644146Y0042331D01*
X0643423Y0042250D01*
X0642763Y0042300D01*
X0642122Y0042464D01*
X0641520Y0042736D01*
X0640973Y0043109D01*
X0640500Y0043571D01*
X0640114Y0044109D01*
X0639827Y0044705D01*
X0639648Y0045342D01*
X0639704Y0045144D02*
X0646981Y0045144D01*
X0647052Y0045643D02*
X0639618Y0045643D01*
X0639597Y0046141D02*
X0647072Y0046141D01*
X0647028Y0046640D02*
X0639648Y0046640D01*
X0639786Y0047138D02*
X0646902Y0047138D01*
X0646708Y0047637D02*
X0639996Y0047637D01*
X0640296Y0048135D02*
X0646429Y0048135D01*
X0646028Y0048634D02*
X0640720Y0048634D01*
X0641341Y0049132D02*
X0645411Y0049132D01*
X0644250Y0049631D02*
X0642531Y0049631D01*
X0639856Y0044646D02*
X0646837Y0044646D01*
X0646593Y0044147D02*
X0640095Y0044147D01*
X0640444Y0043649D02*
X0646253Y0043649D01*
X0645769Y0043150D02*
X0640931Y0043150D01*
X0641706Y0042652D02*
X0645020Y0042652D01*
X0669648Y0045342D02*
X0669583Y0046000D01*
X0669650Y0046658D01*
X0669831Y0047295D01*
X0670119Y0047890D01*
X0670506Y0048427D01*
X0670981Y0048888D01*
X0671528Y0049259D01*
X0672132Y0049530D01*
X0672773Y0049692D01*
X0673433Y0049740D01*
X0674153Y0049662D01*
X0674843Y0049444D01*
X0675477Y0049096D01*
X0676031Y0048631D01*
X0676484Y0048067D01*
X0676818Y0047425D01*
X0677020Y0046731D01*
X0677083Y0046010D01*
X0677022Y0045285D01*
X0676820Y0044586D01*
X0676486Y0043940D01*
X0676032Y0043372D01*
X0675476Y0042903D01*
X0674839Y0042552D01*
X0674146Y0042331D01*
X0673423Y0042250D01*
X0672763Y0042300D01*
X0672122Y0042464D01*
X0671520Y0042736D01*
X0670973Y0043109D01*
X0670500Y0043571D01*
X0670114Y0044109D01*
X0669827Y0044705D01*
X0669648Y0045342D01*
X0669704Y0045144D02*
X0676981Y0045144D01*
X0677052Y0045643D02*
X0669618Y0045643D01*
X0669597Y0046141D02*
X0677072Y0046141D01*
X0677028Y0046640D02*
X0669648Y0046640D01*
X0669786Y0047138D02*
X0676902Y0047138D01*
X0676708Y0047637D02*
X0669996Y0047637D01*
X0670296Y0048135D02*
X0676429Y0048135D01*
X0676028Y0048634D02*
X0670720Y0048634D01*
X0671341Y0049132D02*
X0675411Y0049132D01*
X0674250Y0049631D02*
X0672531Y0049631D01*
X0669856Y0044646D02*
X0676837Y0044646D01*
X0676593Y0044147D02*
X0670095Y0044147D01*
X0670444Y0043649D02*
X0676253Y0043649D01*
X0675769Y0043150D02*
X0670931Y0043150D01*
X0671706Y0042652D02*
X0675020Y0042652D01*
X0699648Y0045342D02*
X0699583Y0046000D01*
X0699650Y0046658D01*
X0699831Y0047295D01*
X0700119Y0047890D01*
X0700506Y0048427D01*
X0700981Y0048888D01*
X0701528Y0049259D01*
X0702132Y0049530D01*
X0702773Y0049692D01*
X0703433Y0049740D01*
X0704153Y0049662D01*
X0704843Y0049444D01*
X0705477Y0049096D01*
X0706031Y0048631D01*
X0706484Y0048067D01*
X0706818Y0047425D01*
X0707020Y0046731D01*
X0707083Y0046010D01*
X0707022Y0045285D01*
X0706820Y0044586D01*
X0706486Y0043940D01*
X0706032Y0043372D01*
X0705476Y0042903D01*
X0704839Y0042552D01*
X0704146Y0042331D01*
X0703423Y0042250D01*
X0702763Y0042300D01*
X0702122Y0042464D01*
X0701520Y0042736D01*
X0700973Y0043109D01*
X0700500Y0043571D01*
X0700114Y0044109D01*
X0699827Y0044705D01*
X0699648Y0045342D01*
X0699704Y0045144D02*
X0706981Y0045144D01*
X0707052Y0045643D02*
X0699618Y0045643D01*
X0699597Y0046141D02*
X0707072Y0046141D01*
X0707028Y0046640D02*
X0699648Y0046640D01*
X0699786Y0047138D02*
X0706902Y0047138D01*
X0706708Y0047637D02*
X0699996Y0047637D01*
X0700296Y0048135D02*
X0706429Y0048135D01*
X0706028Y0048634D02*
X0700720Y0048634D01*
X0701341Y0049132D02*
X0705411Y0049132D01*
X0704250Y0049631D02*
X0702531Y0049631D01*
X0699856Y0044646D02*
X0706837Y0044646D01*
X0706593Y0044147D02*
X0700095Y0044147D01*
X0700444Y0043649D02*
X0706253Y0043649D01*
X0705769Y0043150D02*
X0700931Y0043150D01*
X0701706Y0042652D02*
X0705020Y0042652D01*
X0749583Y0046000D02*
X0749650Y0046658D01*
X0749831Y0047295D01*
X0750119Y0047890D01*
X0750506Y0048427D01*
X0750981Y0048888D01*
X0751528Y0049259D01*
X0752132Y0049530D01*
X0752773Y0049692D01*
X0753433Y0049740D01*
X0754153Y0049662D01*
X0754843Y0049444D01*
X0755477Y0049096D01*
X0756031Y0048631D01*
X0756484Y0048067D01*
X0756818Y0047425D01*
X0757020Y0046731D01*
X0757083Y0046010D01*
X0757022Y0045285D01*
X0756820Y0044586D01*
X0756486Y0043940D01*
X0756032Y0043372D01*
X0755476Y0042903D01*
X0754839Y0042552D01*
X0754146Y0042331D01*
X0753423Y0042250D01*
X0752763Y0042300D01*
X0752122Y0042464D01*
X0751520Y0042736D01*
X0750973Y0043109D01*
X0750500Y0043571D01*
X0750114Y0044109D01*
X0749827Y0044705D01*
X0749648Y0045342D01*
X0749583Y0046000D01*
X0749597Y0046141D02*
X0757072Y0046141D01*
X0757052Y0045643D02*
X0749618Y0045643D01*
X0749704Y0045144D02*
X0756981Y0045144D01*
X0756837Y0044646D02*
X0749856Y0044646D01*
X0750095Y0044147D02*
X0756593Y0044147D01*
X0756253Y0043649D02*
X0750444Y0043649D01*
X0750931Y0043150D02*
X0755769Y0043150D01*
X0755020Y0042652D02*
X0751706Y0042652D01*
X0749648Y0046640D02*
X0757028Y0046640D01*
X0756902Y0047138D02*
X0749786Y0047138D01*
X0749996Y0047637D02*
X0756708Y0047637D01*
X0756429Y0048135D02*
X0750296Y0048135D01*
X0750720Y0048634D02*
X0756028Y0048634D01*
X0755411Y0049132D02*
X0751341Y0049132D01*
X0752531Y0049631D02*
X0754250Y0049631D01*
X0779650Y0046658D02*
X0779583Y0046000D01*
X0779648Y0045342D01*
X0779827Y0044705D01*
X0780114Y0044109D01*
X0780500Y0043571D01*
X0780973Y0043109D01*
X0781520Y0042736D01*
X0782122Y0042464D01*
X0782763Y0042300D01*
X0783423Y0042250D01*
X0784146Y0042331D01*
X0784839Y0042552D01*
X0785476Y0042903D01*
X0786032Y0043372D01*
X0786486Y0043940D01*
X0786820Y0044586D01*
X0787022Y0045285D01*
X0787083Y0046010D01*
X0787020Y0046731D01*
X0786818Y0047425D01*
X0786484Y0048067D01*
X0786031Y0048631D01*
X0785477Y0049096D01*
X0784843Y0049444D01*
X0784153Y0049662D01*
X0783433Y0049740D01*
X0782773Y0049692D01*
X0782132Y0049530D01*
X0781528Y0049259D01*
X0780981Y0048888D01*
X0780506Y0048427D01*
X0780119Y0047890D01*
X0779831Y0047295D01*
X0779650Y0046658D01*
X0779648Y0046640D02*
X0787028Y0046640D01*
X0787072Y0046141D02*
X0779597Y0046141D01*
X0779618Y0045643D02*
X0787052Y0045643D01*
X0786981Y0045144D02*
X0779704Y0045144D01*
X0779856Y0044646D02*
X0786837Y0044646D01*
X0786593Y0044147D02*
X0780095Y0044147D01*
X0780444Y0043649D02*
X0786253Y0043649D01*
X0785769Y0043150D02*
X0780931Y0043150D01*
X0781706Y0042652D02*
X0785020Y0042652D01*
X0786902Y0047138D02*
X0779786Y0047138D01*
X0779996Y0047637D02*
X0786708Y0047637D01*
X0786429Y0048135D02*
X0780296Y0048135D01*
X0780720Y0048634D02*
X0786028Y0048634D01*
X0785411Y0049132D02*
X0781341Y0049132D01*
X0782531Y0049631D02*
X0784250Y0049631D01*
X0591578Y0154080D02*
X0591190Y0153543D01*
X0590716Y0153082D01*
X0590168Y0152711D01*
X0589565Y0152440D01*
X0588923Y0152278D01*
X0588263Y0152230D01*
X0587544Y0152309D01*
X0586854Y0152526D01*
X0586220Y0152874D01*
X0585665Y0153339D01*
X0585213Y0153903D01*
X0584879Y0154545D01*
X0584676Y0155239D01*
X0584613Y0155960D01*
X0584675Y0156685D01*
X0584877Y0157384D01*
X0585211Y0158030D01*
X0585665Y0158598D01*
X0586221Y0159067D01*
X0586858Y0159418D01*
X0587551Y0159639D01*
X0588273Y0159720D01*
X0588933Y0159670D01*
X0589574Y0159506D01*
X0590177Y0159234D01*
X0590723Y0158861D01*
X0591197Y0158399D01*
X0591583Y0157862D01*
X0591869Y0157265D01*
X0592048Y0156628D01*
X0592114Y0155970D01*
X0592046Y0155312D01*
X0591866Y0154675D01*
X0591578Y0154080D01*
X0591693Y0154318D02*
X0584997Y0154318D01*
X0584799Y0154817D02*
X0591906Y0154817D01*
X0592047Y0155315D02*
X0584670Y0155315D01*
X0584626Y0155814D02*
X0592098Y0155814D01*
X0592080Y0156312D02*
X0584643Y0156312D01*
X0584711Y0156811D02*
X0591997Y0156811D01*
X0591848Y0157309D02*
X0584855Y0157309D01*
X0585096Y0157808D02*
X0591609Y0157808D01*
X0591263Y0158306D02*
X0585432Y0158306D01*
X0585910Y0158805D02*
X0590781Y0158805D01*
X0590024Y0159303D02*
X0586649Y0159303D01*
X0585280Y0153820D02*
X0591390Y0153820D01*
X0590961Y0153321D02*
X0585687Y0153321D01*
X0586313Y0152823D02*
X0590333Y0152823D01*
X0589106Y0152324D02*
X0587495Y0152324D01*
X0588233Y0182260D02*
X0587514Y0182338D01*
X0586824Y0182556D01*
X0586190Y0182904D01*
X0585636Y0183369D01*
X0585183Y0183933D01*
X0584849Y0184575D01*
X0584646Y0185269D01*
X0584583Y0185990D01*
X0584645Y0186715D01*
X0584847Y0187414D01*
X0585181Y0188060D01*
X0585635Y0188628D01*
X0586191Y0189097D01*
X0586828Y0189448D01*
X0587521Y0189669D01*
X0588244Y0189750D01*
X0588903Y0189700D01*
X0589544Y0189536D01*
X0590147Y0189264D01*
X0590694Y0188891D01*
X0591167Y0188429D01*
X0591553Y0187891D01*
X0591839Y0187295D01*
X0592018Y0186658D01*
X0592084Y0186000D01*
X0592016Y0185342D01*
X0591836Y0184705D01*
X0591548Y0184110D01*
X0591160Y0183573D01*
X0590686Y0183112D01*
X0590138Y0182741D01*
X0589535Y0182470D01*
X0588893Y0182308D01*
X0588233Y0182260D01*
X0586501Y0182733D02*
X0590122Y0182733D01*
X0590809Y0183232D02*
X0585799Y0183232D01*
X0585345Y0183730D02*
X0591274Y0183730D01*
X0591605Y0184229D02*
X0585029Y0184229D01*
X0584804Y0184727D02*
X0591842Y0184727D01*
X0591984Y0185226D02*
X0584659Y0185226D01*
X0584607Y0185724D02*
X0592056Y0185724D01*
X0592062Y0186223D02*
X0584603Y0186223D01*
X0584647Y0186721D02*
X0592001Y0186721D01*
X0591861Y0187220D02*
X0584791Y0187220D01*
X0585004Y0187718D02*
X0591636Y0187718D01*
X0591319Y0188217D02*
X0585307Y0188217D01*
X0585739Y0188715D02*
X0590873Y0188715D01*
X0590220Y0189214D02*
X0586403Y0189214D01*
X0587912Y0189712D02*
X0588736Y0189712D01*
D16*
X0818727Y0080843D03*
X0867940Y0080843D03*
X0867940Y0061157D03*
X0818727Y0061157D03*
D17*
X0503333Y0148000D02*
X0503333Y0154000D01*
X0513333Y0154000D02*
X0513333Y0148000D01*
X0523333Y0148000D02*
X0523333Y0154000D01*
D18*
X0513333Y0092000D03*
D19*
X0648333Y0191000D03*
X0658333Y0191000D03*
X0668333Y0191000D03*
X0678333Y0191000D03*
X0688333Y0191000D03*
X0698333Y0191000D03*
X0708333Y0191000D03*
X0718333Y0191000D03*
X0728333Y0191000D03*
X0738333Y0191000D03*
X0748333Y0191000D03*
X0758333Y0191000D03*
X0768333Y0191000D03*
X0778333Y0191000D03*
X0778333Y0221000D03*
X0768333Y0221000D03*
X0758333Y0221000D03*
X0748333Y0221000D03*
X0738333Y0221000D03*
X0728333Y0221000D03*
X0718333Y0221000D03*
X0708333Y0221000D03*
X0698333Y0221000D03*
X0688333Y0221000D03*
X0678333Y0221000D03*
X0668333Y0221000D03*
X0658333Y0221000D03*
X0648333Y0221000D03*
M02*
