%
M48
M72
T01C0.02756
T02C0.03200
T03C0.03543
T04C0.04000
T05C0.04724
T06C0.11800
T07C0.13000
%
T01
X141000Y96000
X161000Y96000
X161000Y116000
X161000Y126000
X141000Y126000
X141000Y116000
X70921Y176000
X61079Y176000
X45921Y176000
X36079Y176000
T02
X96000Y171000
X96000Y161000
X131000Y161000
X131000Y171000
X181000Y171000
X181000Y161000
X216000Y161000
X216000Y171000
X251000Y171000
X251000Y161000
X286000Y161000
X286000Y171000
X321000Y171000
X321000Y161000
X241000Y61000
X231000Y61000
X221000Y61000
X211000Y61000
X201000Y61000
X191000Y61000
X181000Y61000
X171000Y61000
X161000Y61000
X151000Y61000
X141000Y61000
X131000Y61000
X121000Y61000
X111000Y61000
X111000Y31000
X121000Y31000
X131000Y31000
X141000Y31000
X151000Y31000
X161000Y31000
X171000Y31000
X181000Y31000
X191000Y31000
X201000Y31000
X211000Y31000
X221000Y31000
X231000Y31000
X241000Y31000
T03
X91000Y71000
X91000Y101000
X96000Y196000
X131000Y196000
X131000Y226000
X96000Y226000
X181000Y226000
X216000Y226000
X251000Y226000
X286000Y226000
X321000Y226000
X321000Y196000
X286000Y196000
X251000Y196000
X216000Y196000
X181000Y196000
X381000Y203795
X381000Y178205
T04
X41000Y31000
X51000Y31000
X51000Y41000
X51000Y51000
X41000Y51000
X41000Y41000
X41000Y151000
X51000Y151000
X61000Y151000
T05
X351394Y70843
X351394Y51157
X400606Y51157
X400606Y70843
T06
X56000Y197063
X37496Y208874
X56000Y220685
T07
X51000Y92000
M30
