G75*
%MOIN*%
%OFA0B0*%
%FSLAX25Y25*%
%IPPOS*%
%LPD*%
%AMOC8*
5,1,8,0,0,1.08239X$1,22.5*
%
%ADD10C,0.00000*%
%ADD11R,0.06500X0.06500*%
%ADD12C,0.06500*%
%ADD13C,0.07400*%
%ADD14C,0.17000*%
%ADD15C,0.07000*%
%ADD16C,0.08000*%
%ADD17C,0.08500*%
%ADD18C,0.06000*%
%ADD19C,0.06400*%
%ADD20C,0.01000*%
D10*
X0463333Y0001000D02*
X0463333Y0240961D01*
X0877034Y0240961D01*
X0877034Y0001000D01*
X0463333Y0001000D01*
X0506833Y0092000D02*
X0506835Y0092161D01*
X0506841Y0092321D01*
X0506851Y0092482D01*
X0506865Y0092642D01*
X0506883Y0092802D01*
X0506904Y0092961D01*
X0506930Y0093120D01*
X0506960Y0093278D01*
X0506993Y0093435D01*
X0507031Y0093592D01*
X0507072Y0093747D01*
X0507117Y0093901D01*
X0507166Y0094054D01*
X0507219Y0094206D01*
X0507275Y0094357D01*
X0507336Y0094506D01*
X0507399Y0094654D01*
X0507467Y0094800D01*
X0507538Y0094944D01*
X0507612Y0095086D01*
X0507690Y0095227D01*
X0507772Y0095365D01*
X0507857Y0095502D01*
X0507945Y0095636D01*
X0508037Y0095768D01*
X0508132Y0095898D01*
X0508230Y0096026D01*
X0508331Y0096151D01*
X0508435Y0096273D01*
X0508542Y0096393D01*
X0508652Y0096510D01*
X0508765Y0096625D01*
X0508881Y0096736D01*
X0509000Y0096845D01*
X0509121Y0096950D01*
X0509245Y0097053D01*
X0509371Y0097153D01*
X0509499Y0097249D01*
X0509630Y0097342D01*
X0509764Y0097432D01*
X0509899Y0097519D01*
X0510037Y0097602D01*
X0510176Y0097682D01*
X0510318Y0097758D01*
X0510461Y0097831D01*
X0510606Y0097900D01*
X0510753Y0097966D01*
X0510901Y0098028D01*
X0511051Y0098086D01*
X0511202Y0098141D01*
X0511355Y0098192D01*
X0511509Y0098239D01*
X0511664Y0098282D01*
X0511820Y0098321D01*
X0511976Y0098357D01*
X0512134Y0098388D01*
X0512292Y0098416D01*
X0512451Y0098440D01*
X0512611Y0098460D01*
X0512771Y0098476D01*
X0512931Y0098488D01*
X0513092Y0098496D01*
X0513253Y0098500D01*
X0513413Y0098500D01*
X0513574Y0098496D01*
X0513735Y0098488D01*
X0513895Y0098476D01*
X0514055Y0098460D01*
X0514215Y0098440D01*
X0514374Y0098416D01*
X0514532Y0098388D01*
X0514690Y0098357D01*
X0514846Y0098321D01*
X0515002Y0098282D01*
X0515157Y0098239D01*
X0515311Y0098192D01*
X0515464Y0098141D01*
X0515615Y0098086D01*
X0515765Y0098028D01*
X0515913Y0097966D01*
X0516060Y0097900D01*
X0516205Y0097831D01*
X0516348Y0097758D01*
X0516490Y0097682D01*
X0516629Y0097602D01*
X0516767Y0097519D01*
X0516902Y0097432D01*
X0517036Y0097342D01*
X0517167Y0097249D01*
X0517295Y0097153D01*
X0517421Y0097053D01*
X0517545Y0096950D01*
X0517666Y0096845D01*
X0517785Y0096736D01*
X0517901Y0096625D01*
X0518014Y0096510D01*
X0518124Y0096393D01*
X0518231Y0096273D01*
X0518335Y0096151D01*
X0518436Y0096026D01*
X0518534Y0095898D01*
X0518629Y0095768D01*
X0518721Y0095636D01*
X0518809Y0095502D01*
X0518894Y0095365D01*
X0518976Y0095227D01*
X0519054Y0095086D01*
X0519128Y0094944D01*
X0519199Y0094800D01*
X0519267Y0094654D01*
X0519330Y0094506D01*
X0519391Y0094357D01*
X0519447Y0094206D01*
X0519500Y0094054D01*
X0519549Y0093901D01*
X0519594Y0093747D01*
X0519635Y0093592D01*
X0519673Y0093435D01*
X0519706Y0093278D01*
X0519736Y0093120D01*
X0519762Y0092961D01*
X0519783Y0092802D01*
X0519801Y0092642D01*
X0519815Y0092482D01*
X0519825Y0092321D01*
X0519831Y0092161D01*
X0519833Y0092000D01*
X0519831Y0091839D01*
X0519825Y0091679D01*
X0519815Y0091518D01*
X0519801Y0091358D01*
X0519783Y0091198D01*
X0519762Y0091039D01*
X0519736Y0090880D01*
X0519706Y0090722D01*
X0519673Y0090565D01*
X0519635Y0090408D01*
X0519594Y0090253D01*
X0519549Y0090099D01*
X0519500Y0089946D01*
X0519447Y0089794D01*
X0519391Y0089643D01*
X0519330Y0089494D01*
X0519267Y0089346D01*
X0519199Y0089200D01*
X0519128Y0089056D01*
X0519054Y0088914D01*
X0518976Y0088773D01*
X0518894Y0088635D01*
X0518809Y0088498D01*
X0518721Y0088364D01*
X0518629Y0088232D01*
X0518534Y0088102D01*
X0518436Y0087974D01*
X0518335Y0087849D01*
X0518231Y0087727D01*
X0518124Y0087607D01*
X0518014Y0087490D01*
X0517901Y0087375D01*
X0517785Y0087264D01*
X0517666Y0087155D01*
X0517545Y0087050D01*
X0517421Y0086947D01*
X0517295Y0086847D01*
X0517167Y0086751D01*
X0517036Y0086658D01*
X0516902Y0086568D01*
X0516767Y0086481D01*
X0516629Y0086398D01*
X0516490Y0086318D01*
X0516348Y0086242D01*
X0516205Y0086169D01*
X0516060Y0086100D01*
X0515913Y0086034D01*
X0515765Y0085972D01*
X0515615Y0085914D01*
X0515464Y0085859D01*
X0515311Y0085808D01*
X0515157Y0085761D01*
X0515002Y0085718D01*
X0514846Y0085679D01*
X0514690Y0085643D01*
X0514532Y0085612D01*
X0514374Y0085584D01*
X0514215Y0085560D01*
X0514055Y0085540D01*
X0513895Y0085524D01*
X0513735Y0085512D01*
X0513574Y0085504D01*
X0513413Y0085500D01*
X0513253Y0085500D01*
X0513092Y0085504D01*
X0512931Y0085512D01*
X0512771Y0085524D01*
X0512611Y0085540D01*
X0512451Y0085560D01*
X0512292Y0085584D01*
X0512134Y0085612D01*
X0511976Y0085643D01*
X0511820Y0085679D01*
X0511664Y0085718D01*
X0511509Y0085761D01*
X0511355Y0085808D01*
X0511202Y0085859D01*
X0511051Y0085914D01*
X0510901Y0085972D01*
X0510753Y0086034D01*
X0510606Y0086100D01*
X0510461Y0086169D01*
X0510318Y0086242D01*
X0510176Y0086318D01*
X0510037Y0086398D01*
X0509899Y0086481D01*
X0509764Y0086568D01*
X0509630Y0086658D01*
X0509499Y0086751D01*
X0509371Y0086847D01*
X0509245Y0086947D01*
X0509121Y0087050D01*
X0509000Y0087155D01*
X0508881Y0087264D01*
X0508765Y0087375D01*
X0508652Y0087490D01*
X0508542Y0087607D01*
X0508435Y0087727D01*
X0508331Y0087849D01*
X0508230Y0087974D01*
X0508132Y0088102D01*
X0508037Y0088232D01*
X0507945Y0088364D01*
X0507857Y0088498D01*
X0507772Y0088635D01*
X0507690Y0088773D01*
X0507612Y0088914D01*
X0507538Y0089056D01*
X0507467Y0089200D01*
X0507399Y0089346D01*
X0507336Y0089494D01*
X0507275Y0089643D01*
X0507219Y0089794D01*
X0507166Y0089946D01*
X0507117Y0090099D01*
X0507072Y0090253D01*
X0507031Y0090408D01*
X0506993Y0090565D01*
X0506960Y0090722D01*
X0506930Y0090880D01*
X0506904Y0091039D01*
X0506883Y0091198D01*
X0506865Y0091358D01*
X0506851Y0091518D01*
X0506841Y0091679D01*
X0506835Y0091839D01*
X0506833Y0092000D01*
D11*
X0498412Y0176000D03*
X0533255Y0176000D03*
D12*
X0523412Y0176000D03*
X0508255Y0176000D03*
X0708333Y0146000D03*
X0733333Y0146000D03*
X0733333Y0136000D03*
X0708333Y0136000D03*
X0723333Y0171000D03*
X0743333Y0171000D03*
D13*
X0578333Y0206000D03*
X0568333Y0206000D03*
X0568333Y0216000D03*
X0578333Y0216000D03*
X0578333Y0226000D03*
X0568333Y0226000D03*
X0583333Y0101000D03*
X0613333Y0101000D03*
X0613333Y0091000D03*
X0583333Y0091000D03*
X0643333Y0091000D03*
X0673333Y0091000D03*
X0673333Y0101000D03*
X0643333Y0101000D03*
X0703333Y0101000D03*
X0703333Y0091000D03*
X0753333Y0091000D03*
X0753333Y0101000D03*
X0783333Y0101000D03*
X0783333Y0091000D03*
D14*
X0518333Y0197063D03*
X0499829Y0208874D03*
X0518333Y0220685D03*
D15*
X0823333Y0168795D03*
X0823333Y0143205D03*
D16*
X0783333Y0076000D03*
X0753333Y0076000D03*
X0703333Y0076000D03*
X0673333Y0076000D03*
X0643333Y0076000D03*
X0613333Y0076000D03*
X0583333Y0076000D03*
X0583333Y0046000D03*
X0613333Y0046000D03*
X0643333Y0046000D03*
X0673333Y0046000D03*
X0703333Y0046000D03*
X0753333Y0046000D03*
X0783333Y0046000D03*
X0588333Y0156000D03*
X0588333Y0186000D03*
D17*
X0818727Y0080843D03*
X0867940Y0080843D03*
X0867940Y0061157D03*
X0818727Y0061157D03*
D18*
X0523333Y0148000D02*
X0523333Y0154000D01*
X0513333Y0154000D02*
X0513333Y0148000D01*
X0503333Y0148000D02*
X0503333Y0154000D01*
D19*
X0648333Y0191000D03*
X0658333Y0191000D03*
X0668333Y0191000D03*
X0678333Y0191000D03*
X0688333Y0191000D03*
X0698333Y0191000D03*
X0708333Y0191000D03*
X0718333Y0191000D03*
X0728333Y0191000D03*
X0738333Y0191000D03*
X0748333Y0191000D03*
X0758333Y0191000D03*
X0768333Y0191000D03*
X0778333Y0191000D03*
X0778333Y0221000D03*
X0768333Y0221000D03*
X0758333Y0221000D03*
X0748333Y0221000D03*
X0738333Y0221000D03*
X0728333Y0221000D03*
X0718333Y0221000D03*
X0708333Y0221000D03*
X0698333Y0221000D03*
X0688333Y0221000D03*
X0678333Y0221000D03*
X0668333Y0221000D03*
X0658333Y0221000D03*
X0648333Y0221000D03*
D20*
X0694833Y0206800D02*
X0708333Y0220300D01*
X0708333Y0221000D01*
X0728133Y0220300D02*
X0728333Y0221000D01*
X0728133Y0220300D02*
X0708333Y0200500D01*
X0708333Y0191000D01*
X0698433Y0190600D02*
X0698333Y0191000D01*
X0698433Y0190600D02*
X0698433Y0106000D01*
X0702933Y0101500D01*
X0703333Y0101000D01*
X0703333Y0091000D02*
X0703833Y0090700D01*
X0703833Y0076300D01*
X0703333Y0076000D01*
X0708333Y0079000D02*
X0709233Y0078100D01*
X0709233Y0052000D01*
X0714633Y0046600D01*
X0753333Y0046600D01*
X0753333Y0046000D01*
X0753333Y0045700D01*
X0783033Y0045700D01*
X0783333Y0046000D01*
X0783933Y0046600D01*
X0803733Y0046600D01*
X0818133Y0061000D01*
X0818727Y0061157D01*
X0819033Y0061900D01*
X0824433Y0067300D01*
X0824433Y0083500D01*
X0823533Y0084400D01*
X0823533Y0142900D01*
X0823333Y0143205D01*
X0783033Y0101500D02*
X0758733Y0125800D01*
X0758733Y0190600D01*
X0758333Y0191000D01*
X0748833Y0190600D02*
X0748333Y0191000D01*
X0748833Y0190600D02*
X0748833Y0106000D01*
X0753333Y0101500D01*
X0753333Y0101000D01*
X0753333Y0091000D02*
X0753333Y0076000D01*
X0783333Y0076000D02*
X0783933Y0076300D01*
X0783933Y0090700D01*
X0783333Y0091000D01*
X0783333Y0101000D02*
X0783033Y0101500D01*
X0708333Y0079000D02*
X0708333Y0136000D01*
X0708333Y0136600D01*
X0732633Y0136600D01*
X0733333Y0136000D01*
X0733333Y0146000D02*
X0733533Y0146500D01*
X0733533Y0161800D01*
X0742533Y0170800D01*
X0743333Y0171000D01*
X0742533Y0171700D01*
X0738933Y0175300D01*
X0738933Y0190600D01*
X0738333Y0191000D01*
X0728333Y0191000D02*
X0728133Y0190600D01*
X0728133Y0176200D01*
X0723633Y0171700D01*
X0723333Y0171000D01*
X0722733Y0170800D01*
X0708333Y0156400D01*
X0708333Y0146000D01*
X0677733Y0135700D02*
X0643533Y0101500D01*
X0643333Y0101000D01*
X0673333Y0101000D02*
X0674133Y0101500D01*
X0687633Y0115000D01*
X0687633Y0190600D01*
X0688333Y0191000D01*
X0678333Y0191000D02*
X0677733Y0190600D01*
X0677733Y0135700D01*
X0667833Y0155500D02*
X0613333Y0101000D01*
X0584133Y0101500D02*
X0583333Y0101000D01*
X0584133Y0101500D02*
X0657933Y0175300D01*
X0657933Y0190600D01*
X0658333Y0191000D01*
X0648333Y0191000D02*
X0648033Y0190600D01*
X0593133Y0190600D01*
X0588633Y0186100D01*
X0588333Y0186000D01*
X0572433Y0200500D02*
X0566133Y0200500D01*
X0546333Y0220300D01*
X0518433Y0220300D01*
X0518333Y0220685D01*
X0517533Y0220300D01*
X0507633Y0210400D01*
X0499829Y0208874D01*
X0500433Y0209500D01*
X0506733Y0209500D01*
X0507633Y0210400D01*
X0507633Y0176200D01*
X0508255Y0176000D01*
X0508533Y0175300D01*
X0513033Y0170800D01*
X0517533Y0175300D01*
X0522933Y0175300D01*
X0523412Y0176000D01*
X0532833Y0176200D02*
X0533255Y0176000D01*
X0532833Y0175300D01*
X0523833Y0166300D01*
X0523833Y0151000D01*
X0523333Y0151000D01*
X0513333Y0151000D02*
X0513033Y0151000D01*
X0513033Y0170800D01*
X0503133Y0170800D02*
X0498633Y0175300D01*
X0498412Y0176000D01*
X0503133Y0170800D02*
X0503133Y0151000D01*
X0503333Y0151000D01*
X0532833Y0176200D02*
X0532833Y0182500D01*
X0518433Y0196900D01*
X0518333Y0197063D01*
X0572433Y0200500D02*
X0577833Y0205900D01*
X0578333Y0206000D01*
X0578733Y0206800D01*
X0694833Y0206800D01*
X0668333Y0191000D02*
X0667833Y0190600D01*
X0667833Y0155500D01*
X0768333Y0191000D02*
X0768633Y0190600D01*
X0772233Y0190600D01*
X0793833Y0169000D01*
X0822633Y0169000D01*
X0823333Y0168795D01*
X0758333Y0221000D02*
X0757833Y0221200D01*
X0755133Y0221200D01*
X0750633Y0225700D01*
X0587733Y0225700D01*
X0578733Y0216700D01*
X0578333Y0216000D01*
X0583333Y0091000D02*
X0584133Y0090700D01*
X0584133Y0076300D01*
X0583333Y0076000D01*
X0613333Y0076000D02*
X0613833Y0076300D01*
X0613833Y0090700D01*
X0613333Y0091000D01*
X0643333Y0091000D02*
X0643533Y0090700D01*
X0643533Y0076300D01*
X0643333Y0076000D01*
X0673333Y0076000D02*
X0674133Y0076300D01*
X0674133Y0090700D01*
X0673333Y0091000D01*
X0709233Y0052000D02*
X0703833Y0046600D01*
X0703333Y0046000D01*
X0702933Y0045700D01*
X0674133Y0045700D01*
X0673333Y0046000D01*
X0673233Y0045700D01*
X0643533Y0045700D01*
X0643333Y0046000D01*
X0642633Y0045700D01*
X0613833Y0045700D01*
X0613333Y0046000D01*
X0612933Y0045700D01*
X0584133Y0045700D01*
X0583333Y0046000D01*
M02*
