%
M48
M72
T01C0.02756
T02C0.03200
T03C0.03543
T04C0.04000
T05C0.04724
T06C0.11800
T07C0.13000
%
T01
X498412Y176000
X508255Y176000
X523412Y176000
X533255Y176000
X708333Y146000
X733333Y146000
X733333Y136000
X708333Y136000
X723333Y171000
X743333Y171000
T02
X738333Y191000
X748333Y191000
X758333Y191000
X768333Y191000
X778333Y191000
X728333Y191000
X718333Y191000
X708333Y191000
X698333Y191000
X688333Y191000
X678333Y191000
X668333Y191000
X658333Y191000
X648333Y191000
X648333Y221000
X658333Y221000
X668333Y221000
X678333Y221000
X688333Y221000
X698333Y221000
X708333Y221000
X718333Y221000
X728333Y221000
X738333Y221000
X748333Y221000
X758333Y221000
X768333Y221000
X778333Y221000
X783333Y101000
X783333Y91000
X753333Y91000
X753333Y101000
X703333Y101000
X703333Y91000
X673333Y91000
X643333Y91000
X643333Y101000
X673333Y101000
X613333Y101000
X583333Y101000
X583333Y91000
X613333Y91000
T03
X823333Y143205
X823333Y168795
T04
X588333Y156000
X523333Y151000
X513333Y151000
X503333Y151000
X588333Y186000
X578333Y206000
X568333Y206000
X568333Y216000
X578333Y216000
X578333Y226000
X568333Y226000
X583333Y76000
X613333Y76000
X643333Y76000
X673333Y76000
X703333Y76000
X753333Y76000
X783333Y76000
X783333Y46000
X753333Y46000
X703333Y46000
X673333Y46000
X643333Y46000
X613333Y46000
X583333Y46000
T05
X818727Y61157
X867940Y61157
X867940Y80843
X818727Y80843
T06
X518333Y197063
X499829Y208874
X518333Y220685
T07
X513333Y92000
M30
