%
M48
M72
T01C0.02756
T02C0.03200
T03C0.03543
T04C0.04000
T05C0.04724
T06C0.11800
T07C0.13000
%
T01
X261000Y136000
X261000Y146000
X281000Y146000
X281000Y136000
X281000Y171000
X261000Y171000
X70921Y176000
X61079Y176000
X45921Y176000
X36079Y176000
T02
X121000Y101000
X121000Y91000
X151000Y91000
X151000Y101000
X181000Y101000
X181000Y91000
X211000Y91000
X211000Y101000
X241000Y101000
X241000Y91000
X291000Y91000
X291000Y101000
X321000Y101000
X321000Y91000
X316000Y191000
X306000Y191000
X296000Y191000
X286000Y191000
X276000Y191000
X266000Y191000
X256000Y191000
X246000Y191000
X236000Y191000
X226000Y191000
X216000Y191000
X206000Y191000
X196000Y191000
X186000Y191000
X186000Y221000
X196000Y221000
X206000Y221000
X216000Y221000
X226000Y221000
X236000Y221000
X246000Y221000
X256000Y221000
X266000Y221000
X276000Y221000
X286000Y221000
X296000Y221000
X306000Y221000
X316000Y221000
T03
X121000Y46000
X151000Y46000
X181000Y46000
X211000Y46000
X241000Y46000
X241000Y76000
X211000Y76000
X181000Y76000
X151000Y76000
X121000Y76000
X126000Y156000
X126000Y186000
X291000Y76000
X321000Y76000
X321000Y46000
X291000Y46000
X341000Y138205
X341000Y163795
T04
X116000Y206000
X106000Y206000
X106000Y216000
X116000Y216000
X116000Y226000
X106000Y226000
X61000Y151000
X51000Y151000
X41000Y151000
T05
X356394Y80843
X356394Y61157
X405606Y61157
X405606Y80843
T06
X56000Y197063
X37496Y208874
X56000Y220685
T07
X51000Y92000
M30
