G75*
%MOIN*%
%OFA0B0*%
%FSLAX25Y25*%
%IPPOS*%
%LPD*%
%AMOC8*
5,1,8,0,0,1.08239X$1,22.5*
%
%ADD10R,0.07300X0.07300*%
%ADD11C,0.07300*%
%ADD12C,0.08200*%
%ADD13C,0.17800*%
%ADD14C,0.07800*%
%ADD15C,0.09300*%
%ADD16C,0.06800*%
%ADD17C,0.13800*%
%ADD18C,0.07200*%
D10*
X0036079Y0176000D03*
X0070921Y0176000D03*
D11*
X0061079Y0176000D03*
X0045921Y0176000D03*
X0141000Y0126000D03*
X0141000Y0116000D03*
X0161000Y0116000D03*
X0161000Y0126000D03*
X0161000Y0096000D03*
X0141000Y0096000D03*
D12*
X0041000Y0031000D03*
X0051000Y0031000D03*
X0051000Y0041000D03*
X0051000Y0051000D03*
X0041000Y0051000D03*
X0041000Y0041000D03*
X0091000Y0071000D03*
X0091000Y0101000D03*
X0096000Y0161000D03*
X0096000Y0171000D03*
X0131000Y0171000D03*
X0131000Y0161000D03*
X0181000Y0161000D03*
X0181000Y0171000D03*
X0216000Y0171000D03*
X0216000Y0161000D03*
X0251000Y0161000D03*
X0251000Y0171000D03*
X0286000Y0171000D03*
X0286000Y0161000D03*
X0321000Y0161000D03*
X0321000Y0171000D03*
X0321000Y0196000D03*
X0286000Y0196000D03*
X0251000Y0196000D03*
X0216000Y0196000D03*
X0181000Y0196000D03*
X0181000Y0226000D03*
X0216000Y0226000D03*
X0251000Y0226000D03*
X0286000Y0226000D03*
X0321000Y0226000D03*
X0131000Y0226000D03*
X0096000Y0226000D03*
X0096000Y0196000D03*
X0131000Y0196000D03*
D13*
X0056000Y0197063D03*
X0037496Y0208874D03*
X0056000Y0220685D03*
D14*
X0381000Y0203795D03*
X0381000Y0178205D03*
D15*
X0400606Y0070843D03*
X0400606Y0051157D03*
X0351394Y0051157D03*
X0351394Y0070843D03*
D16*
X0061000Y0148000D02*
X0061000Y0154000D01*
X0051000Y0154000D02*
X0051000Y0148000D01*
X0041000Y0148000D02*
X0041000Y0154000D01*
D17*
X0051000Y0092000D03*
D18*
X0111000Y0061000D03*
X0121000Y0061000D03*
X0131000Y0061000D03*
X0141000Y0061000D03*
X0151000Y0061000D03*
X0161000Y0061000D03*
X0171000Y0061000D03*
X0181000Y0061000D03*
X0191000Y0061000D03*
X0201000Y0061000D03*
X0211000Y0061000D03*
X0221000Y0061000D03*
X0231000Y0061000D03*
X0241000Y0061000D03*
X0241000Y0031000D03*
X0231000Y0031000D03*
X0221000Y0031000D03*
X0211000Y0031000D03*
X0201000Y0031000D03*
X0191000Y0031000D03*
X0181000Y0031000D03*
X0171000Y0031000D03*
X0161000Y0031000D03*
X0151000Y0031000D03*
X0141000Y0031000D03*
X0131000Y0031000D03*
X0121000Y0031000D03*
X0111000Y0031000D03*
M02*
