G75*
%MOIN*%
%OFA0B0*%
%FSLAX25Y25*%
%IPPOS*%
%LPD*%
%AMOC8*
5,1,8,0,0,1.08239X$1,22.5*
%
%ADD10R,0.06500X0.06500*%
%ADD11C,0.06500*%
%ADD12C,0.07400*%
%ADD13C,0.17000*%
%ADD14C,0.07000*%
%ADD15C,0.08500*%
%ADD16C,0.06000*%
%ADD17C,0.06400*%
%ADD18C,0.01000*%
%ADD19C,0.01200*%
D10*
X0036079Y0176000D03*
X0070921Y0176000D03*
D11*
X0061079Y0176000D03*
X0045921Y0176000D03*
X0261000Y0171000D03*
X0281000Y0171000D03*
X0281000Y0146000D03*
X0281000Y0136000D03*
X0261000Y0136000D03*
X0261000Y0146000D03*
D12*
X0121000Y0046000D03*
X0151000Y0046000D03*
X0181000Y0046000D03*
X0211000Y0046000D03*
X0241000Y0046000D03*
X0241000Y0076000D03*
X0241000Y0091000D03*
X0241000Y0101000D03*
X0211000Y0101000D03*
X0211000Y0091000D03*
X0211000Y0076000D03*
X0181000Y0076000D03*
X0181000Y0091000D03*
X0181000Y0101000D03*
X0151000Y0101000D03*
X0151000Y0091000D03*
X0151000Y0076000D03*
X0121000Y0076000D03*
X0121000Y0091000D03*
X0121000Y0101000D03*
X0126000Y0156000D03*
X0126000Y0186000D03*
X0116000Y0206000D03*
X0106000Y0206000D03*
X0106000Y0216000D03*
X0116000Y0216000D03*
X0116000Y0226000D03*
X0106000Y0226000D03*
X0291000Y0101000D03*
X0291000Y0091000D03*
X0291000Y0076000D03*
X0321000Y0076000D03*
X0321000Y0091000D03*
X0321000Y0101000D03*
X0321000Y0046000D03*
X0291000Y0046000D03*
D13*
X0056000Y0197063D03*
X0037496Y0208874D03*
X0056000Y0220685D03*
D14*
X0341000Y0163795D03*
X0341000Y0138205D03*
D15*
X0356394Y0080843D03*
X0356394Y0061157D03*
X0405606Y0061157D03*
X0405606Y0080843D03*
D16*
X0061000Y0148000D02*
X0061000Y0154000D01*
X0051000Y0154000D02*
X0051000Y0148000D01*
X0041000Y0148000D02*
X0041000Y0154000D01*
D17*
X0186000Y0191000D03*
X0196000Y0191000D03*
X0206000Y0191000D03*
X0216000Y0191000D03*
X0226000Y0191000D03*
X0236000Y0191000D03*
X0246000Y0191000D03*
X0256000Y0191000D03*
X0266000Y0191000D03*
X0276000Y0191000D03*
X0286000Y0191000D03*
X0296000Y0191000D03*
X0306000Y0191000D03*
X0316000Y0191000D03*
X0316000Y0221000D03*
X0306000Y0221000D03*
X0296000Y0221000D03*
X0286000Y0221000D03*
X0276000Y0221000D03*
X0266000Y0221000D03*
X0256000Y0221000D03*
X0246000Y0221000D03*
X0236000Y0221000D03*
X0226000Y0221000D03*
X0216000Y0221000D03*
X0206000Y0221000D03*
X0196000Y0221000D03*
X0186000Y0221000D03*
D18*
X0126300Y0186100D02*
X0126000Y0186000D01*
X0106500Y0205900D02*
X0106000Y0206000D01*
X0246000Y0201400D02*
X0255900Y0191500D01*
X0256000Y0191000D01*
X0246000Y0201400D02*
X0246000Y0221000D01*
D19*
X0266000Y0231000D02*
X0111000Y0231000D01*
X0111000Y0221000D01*
X0106000Y0216000D01*
X0106000Y0226000D02*
X0106000Y0231000D01*
X0111000Y0236000D01*
X0271000Y0236000D01*
X0286000Y0221000D01*
X0276000Y0221000D02*
X0266000Y0231000D01*
X0246000Y0191000D02*
X0221000Y0166000D01*
X0136000Y0166000D01*
X0136000Y0221000D01*
X0131000Y0226000D01*
X0116000Y0226000D01*
X0106500Y0205900D02*
X0106500Y0195500D01*
X0116000Y0186000D01*
X0126000Y0186000D01*
X0136000Y0166000D02*
X0136000Y0161000D01*
X0131000Y0156000D01*
X0126000Y0156000D01*
X0116000Y0156000D01*
X0111000Y0161000D01*
X0045800Y0161000D01*
X0040800Y0156000D01*
X0040800Y0151200D01*
X0041000Y0151000D01*
X0281000Y0136000D02*
X0316000Y0136000D01*
X0318205Y0138205D01*
X0341000Y0138205D01*
M02*
